<?xml version="1.0" encoding="UTF-8" standalone="no"?>
<svg
   xmlns:dc="http://purl.org/dc/elements/1.1/"
   xmlns:cc="http://creativecommons.org/ns#"
   xmlns:rdf="http://www.w3.org/1999/02/22-rdf-syntax-ns#"
   xmlns:svg="http://www.w3.org/2000/svg"
   xmlns="http://www.w3.org/2000/svg"
   xmlns:sodipodi="http://sodipodi.sourceforge.net/DTD/sodipodi-0.dtd"
   xmlns:inkscape="http://www.inkscape.org/namespaces/inkscape"
   id="ae"
   viewBox="0 0 1024 1024"
   width="1024"
   height="1024"
   version="1.1"
   sodipodi:docname="ae-adaept-1024x1024-final.svg"
   inkscape:version="0.92.3 (2405546, 2018-03-11)">
  <defs
     id="defs8" />
  <sodipodi:namedview
     pagecolor="#ffffff"
     bordercolor="#666666"
     borderopacity="1"
     objecttolerance="10"
     gridtolerance="10"
     guidetolerance="10"
     inkscape:pageopacity="0"
     inkscape:pageshadow="2"
     inkscape:window-width="1600"
     inkscape:window-height="837"
     id="namedview6"
     showgrid="false"
     inkscape:zoom="0.4609375"
     inkscape:cx="119.18225"
     inkscape:cy="512"
     inkscape:window-x="-8"
     inkscape:window-y="-8"
     inkscape:window-maximized="1"
     inkscape:current-layer="ae" />
  <metadata
     id="adaept">
    <rdf:RDF>
      <cc:Work
         rdf:about="">
        <dc:format>image/svg+xml</dc:format>
        <dc:type
           rdf:resource="http://purl.org/dc/dcmitype/StillImage" />
        <dc:title></dc:title>
      </cc:Work>
    </rdf:RDF>
  </metadata>
  <path
     d="M 355.79883 257.03516 C 353.0952 257.02758 350.34734 257.03617 347.55078 257.06055 L 347.53906 257.05078 C 178.57527 257.55056 34.732186 386.07316 12.921875 513.02734 L 12.769531 513.0293 C 16.019531 759.9493 196.23922 1000.3091 499.19922 1010.3691 C 746.24922 1018.5791 1013.3195 813.08023 1011.6895 502.24023 L 1011.5508 502.30078 C 965.65078 793.09078 680.78086 942.26914 501.13086 941.61914 C 261.97086 941.08914 77.689453 753.93008 77.689453 512.58008 L 77.494141 512.58203 C 120.12855 386.24152 256.92346 295.2428 394.58984 319.65039 C 463.32984 336.37039 463.86906 387.25914 465.28906 443.36914 C 424.28906 444.14914 381.97086 439.16953 344.13086 442.51953 C 237.34086 458.90953 166.73008 494.86008 164.83008 605.58008 C 167.53008 691.06008 231.09992 755.93977 308.41992 757.00977 C 395.46992 756.55977 456.26984 718.4207 506.33984 659.9707 L 524.33984 339.66992 C 479.55453 273.40742 439.61128 257.26996 355.79883 257.03516 z M 396.19922 503.8125 C 418.05581 503.80774 439.76719 504.80273 460.28906 504.13086 C 460.79964 542.28691 464.37124 580.23284 476.5 614.10938 C 419.05 659.77937 327.44063 711.94977 264.89062 660.25977 C 236.23063 628.84977 233.37023 575.87945 260.99023 546.68945 C 299.33211 508.66383 348.11472 503.82297 396.19922 503.8125 z "
     id="a"
     style="fill:#ed2939;fill-opacity:1" />
  <path
     d="M 506.43945 14.580078 C 278.29945 14.700078 12.920625 199.52922 12.890625 513.19922 C 77.890625 219.20922 262.92945 96.849844 500.18945 80.339844 C 756.89945 88.829844 941.37937 316.78039 950.35938 504.15039 L 950.41211 504.14844 C 914.88476 632.53703 807.86445 687.27311 706.53906 692.38086 C 608.56906 688.70086 542.93008 627.51047 546.83008 501.48047 L 869.78906 503.17969 C 870.14906 437.85969 857.5993 361.63008 821.0293 314.58008 C 789.4893 276.13008 743.75031 256.67969 683.32031 256.67969 C 619.22031 259.42969 566.99031 289.08 524.32031 336.75 L 505.43945 659.07031 C 560.59945 716.02031 639.16984 747.04 708.08984 747.5 C 865.91984 747.51 984.80078 632.69055 1011.5508 502.31055 L 996.14258 502.73242 L 1011.6895 502.25 C 1008.2795 230.43 781.79945 14.440078 506.43945 14.580078 z M 685.17969 317 C 763.29969 320.66 795.52062 371.89078 803.64062 440.55078 L 552.31055 440.55078 C 564.01055 367.55078 616.73969 318.04 685.17969 317 z "
     id="e"
     style="fill:#009e60;fill-opacity:1" />
</svg>
