<?xml version="1.0" encoding="UTF-8" standalone="no"?>
<svg
   xmlns:dc="http://purl.org/dc/elements/1.1/"
   xmlns:cc="http://creativecommons.org/ns#"
   xmlns:rdf="http://www.w3.org/1999/02/22-rdf-syntax-ns#"
   xmlns:svg="http://www.w3.org/2000/svg"
   xmlns="http://www.w3.org/2000/svg"
   xmlns:sodipodi="http://sodipodi.sourceforge.net/DTD/sodipodi-0.dtd"
   xmlns:inkscape="http://www.inkscape.org/namespaces/inkscape"
   inkscape:version="1.0 (4035a4fb49, 2020-05-01)"
   sodipodi:docname="ae-adaept-4096x4096-final.svg"
   version="1.1"
   height="4096"
   width="4096"
   viewBox="0 0 4096 4095.9999"
   id="ae">
  <defs
     id="defs8" />
  <sodipodi:namedview
     fit-margin-left="0"
     fit-margin-top="0"
     fit-margin-bottom="4096"
     fit-margin-right="4096"
     inkscape:document-rotation="0"
     inkscape:current-layer="ae"
     inkscape:window-maximized="1"
     inkscape:window-y="-8"
     inkscape:window-x="-8"
     inkscape:cy="2391.9925"
     inkscape:cx="843.74876"
     inkscape:zoom="0.11523438"
     showgrid="false"
     id="namedview6"
     inkscape:window-height="837"
     inkscape:window-width="1600"
     inkscape:pageshadow="2"
     inkscape:pageopacity="0"
     guidetolerance="10"
     gridtolerance="10"
     objecttolerance="10"
     borderopacity="1"
     bordercolor="#666666"
     pagecolor="#ffffff" />
  <metadata
     id="adaept">
    <rdf:RDF>
      <cc:Work
         rdf:about="">
        <dc:format>image/svg+xml</dc:format>
        <dc:type
           rdf:resource="http://purl.org/dc/dcmitype/StillImage" />
        <dc:title></dc:title>
      </cc:Work>
    </rdf:RDF>
  </metadata>
  <g
     transform="translate(1548.5363,1549.9868)"
     id="g833">
    <path
       d="m 343.02929,242.45515 c -2.70362,-0.008 -5.45148,0.001 -8.24804,0.0254 l -0.0117,-0.01 c -168.96382,0.5 -312.806895,129.0226 -334.617206,255.97678 L 0,498.44933 c 3.25,246.92 183.46968,487.2798 486.42968,497.3398 247.05,8.20997 514.12032,-197.28887 512.49028,-508.12887 l -0.1387,0.0605 C 952.88124,778.51076 668.01132,927.68912 488.36132,927.03912 249.20133,926.50912 64.919922,739.35006 64.919922,498.00006 l -0.195312,0.002 C 107.35902,371.66151 244.15392,280.66279 381.8203,305.07038 c 68.74,16.72 69.27922,67.60875 70.69922,123.71875 -41,0.78 -83.3182,-4.19961 -121.1582,-0.84961 -106.79,16.39 -177.40078,52.34055 -179.30078,163.06055 2.7,85.48 66.26984,150.35969 143.58984,151.42969 87.05,-0.45 147.84992,-38.58907 197.91992,-97.03907 l 18,-320.30078 c -44.78531,-66.2625 -84.72856,-82.39996 -168.54101,-82.63476 z m 40.4004,246.77734 c 21.85658,-0.005 43.56797,0.99023 64.08983,0.31836 0.51058,38.15605 4.08218,76.10198 16.21094,109.97852 -57.45,45.66999 -149.05937,97.84039 -211.60937,46.15039 -28.65999,-31.41 -31.52039,-84.38032 -3.9004,-113.57032 38.34188,-38.02562 87.12449,-42.86648 135.209,-42.87695 z"
       id="a"
       style="fill:#ed2939;fill-opacity:1" />
    <path
       d="M 493.66992,6.8020093e-5 C 265.52992,0.12006802 0.151094,184.94921 0.121094,498.61921 c 65,-293.99 250.038816,-416.349376 487.298826,-432.859376 256.70999,8.49 441.18991,236.440546 450.16993,423.810546 l 0.0527,-0.002 C 902.1152,617.95697 795.09489,672.69305 693.7695,677.8008 595.79949,674.1208 530.16052,612.93041 534.06052,486.90041 l 322.95898,1.69922 c 0.36,-65.32 -12.18976,-141.54961 -48.75977,-188.59961 -31.53999,-38.45 -77.27899,-57.90039 -137.70898,-57.90039 -64.10001,2.75 -116.33001,32.40031 -159,80.07031 l -18.88086,322.32031 c 55.15999,56.95 133.73039,87.96969 202.65039,88.42969 157.83,0.01 276.71094,-114.80945 303.46096,-245.18945 l -15.40822,0.42187 15.54692,-0.48242 C 995.50996,215.84999 769.02991,-0.13993198 493.66992,6.8020093e-5 Z M 672.41016,302.41999 c 78.12,3.66 110.34092,54.89078 118.46093,123.55078 H 539.54102 c 11.7,-73 64.42913,-122.51078 132.86914,-123.55078 z"
       id="e"
       style="fill:#009e60;fill-opacity:1" />
  </g>
</svg>
